<?xml version="1.0" encoding="utf-8"?>
<!-- Generator: Adobe Illustrator 16.0.0, SVG Export Plug-In . SVG Version: 6.00 Build 0)  -->
<!DOCTYPE svg PUBLIC "-//W3C//DTD SVG 1.1//EN" "http://www.w3.org/Graphics/SVG/1.1/DTD/svg11.dtd">
<svg version="1.1" id="图层_1" xmlns="http://www.w3.org/2000/svg" xmlns:xlink="http://www.w3.org/1999/xlink" x="0px" y="0px"
	 width="260px" height="294px" viewBox="-35.5 0 260 294" enable-background="new -35.5 0 260 294" xml:space="preserve">
<desc>Created with Lunacy</desc>
<g id="Group-49" transform="matrix(0.7071066 0.7071069 -0.7071069 0.7071066 174.1226 -25.49512)" opacity="0.0849">
	<g id="Group-6" transform="translate(6.552734 5.919067)">
		<path id="Clip-5" fill="none" d="M11.073,61.649c3.832-1.661,7.733-3.119,11.683-4.373l-80.032,80.032
			c1.254-3.951,2.711-7.85,4.373-11.683L11.073,61.649L11.073,61.649z"/>
		<g>
			<defs>
				<path id="SVGID_1_" d="M11.073,61.649c3.832-1.661,7.733-3.119,11.683-4.373l-80.032,80.032
					c1.254-3.951,2.711-7.85,4.373-11.683L11.073,61.649L11.073,61.649z"/>
			</defs>
			<clipPath id="SVGID_2_">
				<use xlink:href="#SVGID_1_"  overflow="visible"/>
			</clipPath>
			<g clip-path="url(#SVGID_2_)">
				
					<linearGradient id="Fill-4_1_" gradientUnits="userSpaceOnUse" x1="123.8597" y1="667.0203" x2="124.4698" y2="667.6303" gradientTransform="matrix(190.1927 -190.1926 -190.1926 -190.1927 103275.0859 150525.7969)">
					<stop  offset="0" style="stop-color:#0D57AA"/>
					<stop  offset="1" style="stop-color:#442683"/>
				</linearGradient>
				<path id="Fill-4" fill="url(#Fill-4_1_)" d="M-149.918,229.95l-3.655-3.655L111.745-39.023l3.655,3.655L-149.918,229.95z"/>
			</g>
		</g>
	</g>
	<g id="Group-9" transform="translate(0 0.0002441406)">
		<path id="Clip-8" fill="none" d="M51.17,58.392c2.679-0.337,5.367-0.587,8.06-0.749L-56.275,173.148
			c0.162-2.692,0.412-5.381,0.749-8.06L51.17,58.392L51.17,58.392z"/>
		<g>
			<defs>
				<path id="SVGID_3_" d="M51.17,58.392c2.679-0.337,5.367-0.587,8.06-0.749L-56.275,173.148c0.162-2.692,0.412-5.381,0.749-8.06
					L51.17,58.392L51.17,58.392z"/>
			</defs>
			<clipPath id="SVGID_4_">
				<use xlink:href="#SVGID_3_"  overflow="visible"/>
			</clipPath>
			<g clip-path="url(#SVGID_4_)">
				
					<linearGradient id="Fill-7_1_" gradientUnits="userSpaceOnUse" x1="130.4125" y1="672.9391" x2="131.0225" y2="673.5491" gradientTransform="matrix(190.1934 -190.1926 -190.1933 -190.1927 103173.6719 152915.8906)">
					<stop  offset="0" style="stop-color:#0D57AA"/>
					<stop  offset="1" style="stop-color:#442683"/>
				</linearGradient>
				<path id="Fill-7" fill="url(#Fill-7_1_)" d="M-131.182,248.054l-3.656-3.655L130.481-20.918l3.655,3.655L-131.182,248.054z"/>
			</g>
		</g>
	</g>
	<g id="Group-12" transform="translate(1.070068 0)">
		<path id="Clip-11" fill="none" d="M75.077,57.784c2.214,0.17,4.422,0.399,6.624,0.688L-56.517,196.69
			c-0.289-2.202-0.518-4.411-0.688-6.623L75.077,57.784L75.077,57.784z"/>
		<g>
			<defs>
				<path id="SVGID_5_" d="M75.077,57.784c2.214,0.17,4.422,0.399,6.624,0.688L-56.517,196.69c-0.289-2.202-0.518-4.411-0.688-6.623
					L75.077,57.784L75.077,57.784z"/>
			</defs>
			<clipPath id="SVGID_6_">
				<use xlink:href="#SVGID_5_"  overflow="visible"/>
			</clipPath>
			<g clip-path="url(#SVGID_6_)">
				
					<linearGradient id="Fill-10_1_" gradientUnits="userSpaceOnUse" x1="129.3424" y1="672.9393" x2="129.9525" y2="673.5494" gradientTransform="matrix(190.1934 -190.1926 -190.1933 -190.1927 103388.3594 152724.5938)">
					<stop  offset="0" style="stop-color:#0D57AA"/>
					<stop  offset="1" style="stop-color:#442683"/>
				</linearGradient>
				<path id="Fill-10" fill="url(#Fill-10_1_)" d="M-120.067,260.239l-3.656-3.655L141.595-8.734l3.655,3.655L-120.067,260.239z"/>
			</g>
		</g>
	</g>
	<g id="Group-15" transform="translate(4.282715 3.209961)">
		<path id="Clip-14" fill="none" d="M92.803,58.005c1.914,0.486,3.819,1.019,5.713,1.598L-55.386,213.505
			c-0.579-1.894-1.112-3.799-1.598-5.713L92.803,58.005L92.803,58.005z"/>
		<g>
			<defs>
				<path id="SVGID_7_" d="M92.803,58.005c1.914,0.486,3.819,1.019,5.713,1.598L-55.386,213.505
					c-0.579-1.894-1.112-3.799-1.598-5.713L92.803,58.005L92.803,58.005z"/>
			</defs>
			<clipPath id="SVGID_8_">
				<use xlink:href="#SVGID_7_"  overflow="visible"/>
			</clipPath>
			<g clip-path="url(#SVGID_8_)">
				
					<linearGradient id="Fill-13_1_" gradientUnits="userSpaceOnUse" x1="126.1297" y1="669.7294" x2="126.7398" y2="670.3394" gradientTransform="matrix(190.1934 -190.1933 -190.1933 -190.1934 103397.7734 151512.6719)">
					<stop  offset="0" style="stop-color:#0D57AA"/>
					<stop  offset="1" style="stop-color:#442683"/>
				</linearGradient>
				<path id="Fill-13" fill="url(#Fill-13_1_)" d="M-111.095,269.213l-3.655-3.655L150.57,0.238l3.655,3.655L-111.095,269.213z"/>
			</g>
		</g>
	</g>
	<g id="Group-18" transform="translate(10.74561 10.10974)">
		<path id="Clip-17" fill="none" d="M104.539,57.276c1.687,0.723,3.361,1.487,5.022,2.29L-54.985,224.112
			c-0.803-1.66-1.566-3.334-2.29-5.021L104.539,57.276L104.539,57.276z"/>
		<g>
			<defs>
				<path id="SVGID_9_" d="M104.539,57.276c1.687,0.723,3.361,1.487,5.022,2.29L-54.985,224.112c-0.803-1.66-1.566-3.334-2.29-5.021
					L104.539,57.276L104.539,57.276z"/>
			</defs>
			<clipPath id="SVGID_10_">
				<use xlink:href="#SVGID_9_"  overflow="visible"/>
			</clipPath>
			<g clip-path="url(#SVGID_10_)">
				
					<linearGradient id="Fill-16_1_" gradientUnits="userSpaceOnUse" x1="119.6668" y1="662.8296" x2="120.2769" y2="663.4396" gradientTransform="matrix(190.1934 -190.1933 -190.1933 -190.1934 103320.3984 148976.4531)">
					<stop  offset="0" style="stop-color:#0D57AA"/>
					<stop  offset="1" style="stop-color:#442683"/>
				</linearGradient>
				<path id="Fill-16" fill="url(#Fill-16_1_)" d="M-105.372,274.498l-3.655-3.656L156.291,5.523l3.656,3.656L-105.372,274.498z"/>
			</g>
		</g>
	</g>
	<g id="Group-21" transform="translate(19.0791 18.44507)">
		<path id="Clip-20" fill="none" d="M112.239,57.276c1.494,0.923,2.973,1.881,4.436,2.874L-54.401,231.227
			c-0.993-1.462-1.951-2.942-2.875-4.436L112.239,57.276L112.239,57.276z"/>
		<g>
			<defs>
				<path id="SVGID_11_" d="M112.239,57.276c1.494,0.923,2.973,1.881,4.436,2.874L-54.401,231.227
					c-0.993-1.462-1.951-2.942-2.875-4.436L112.239,57.276L112.239,57.276z"/>
			</defs>
			<clipPath id="SVGID_12_">
				<use xlink:href="#SVGID_11_"  overflow="visible"/>
			</clipPath>
			<g clip-path="url(#SVGID_12_)">
				
					<linearGradient id="Fill-19_1_" gradientUnits="userSpaceOnUse" x1="111.3334" y1="654.4943" x2="111.9434" y2="655.1043" gradientTransform="matrix(190.1927 -190.1933 -190.1926 -190.1934 103323.4922 145810.0313)">
					<stop  offset="0" style="stop-color:#0D57AA"/>
					<stop  offset="1" style="stop-color:#442683"/>
				</linearGradient>
				<path id="Fill-19" fill="url(#Fill-19_1_)" d="M-101.522,278.348l-3.655-3.656L160.141,9.373l3.655,3.655L-101.522,278.348z"/>
			</g>
		</g>
	</g>
	<g id="Group-24" transform="translate(28.89941 27.82837)">
		<path id="Clip-23" fill="none" d="M116.579,58.101c1.321,1.102,2.624,2.236,3.908,3.402L-53.486,235.477
			c-1.166-1.285-2.301-2.588-3.403-3.909L116.579,58.101L116.579,58.101z"/>
		<g>
			<defs>
				<path id="SVGID_13_" d="M116.579,58.101c1.321,1.102,2.624,2.236,3.908,3.402L-53.486,235.477
					c-1.166-1.285-2.301-2.588-3.403-3.909L116.579,58.101L116.579,58.101z"/>
			</defs>
			<clipPath id="SVGID_14_">
				<use xlink:href="#SVGID_13_"  overflow="visible"/>
			</clipPath>
			<g clip-path="url(#SVGID_14_)">
				
					<linearGradient id="Fill-22_1_" gradientUnits="userSpaceOnUse" x1="101.513" y1="645.111" x2="102.1231" y2="645.721" gradientTransform="matrix(190.1927 -190.1933 -190.1926 -190.1934 103408.9688 142160.4219)">
					<stop  offset="0" style="stop-color:#0D57AA"/>
					<stop  offset="1" style="stop-color:#442683"/>
				</linearGradient>
				<path id="Fill-22" fill="url(#Fill-22_1_)" d="M-99.158,281.149l-3.655-3.656L162.505,12.175l3.655,3.655L-99.158,281.149z"/>
			</g>
		</g>
	</g>
	<g id="Group-27" transform="translate(40.67456 39.60132)">
		<path id="Clip-26" fill="none" d="M117.243,58.259c1.166,1.284,2.3,2.587,3.403,3.908L-52.822,235.635
			c-1.321-1.103-2.624-2.237-3.908-3.403L117.243,58.259L117.243,58.259z"/>
		<g>
			<defs>
				<path id="SVGID_15_" d="M117.243,58.259c1.166,1.284,2.3,2.587,3.403,3.908L-52.822,235.635
					c-1.321-1.103-2.624-2.237-3.908-3.403L117.243,58.259L117.243,58.259z"/>
			</defs>
			<clipPath id="SVGID_16_">
				<use xlink:href="#SVGID_15_"  overflow="visible"/>
			</clipPath>
			<g clip-path="url(#SVGID_16_)">
				
					<linearGradient id="Fill-25_1_" gradientUnits="userSpaceOnUse" x1="89.7379" y1="633.338" x2="90.348" y2="633.9481" gradientTransform="matrix(190.1927 -190.1926 -190.1926 -190.1927 103409.875 137681.5781)">
					<stop  offset="0" style="stop-color:#0D57AA"/>
					<stop  offset="1" style="stop-color:#442683"/>
				</linearGradient>
				<path id="Fill-25" fill="url(#Fill-25_1_)" d="M-98.747,281.559l-3.655-3.655L162.917,12.585l3.654,3.656L-98.747,281.559z"/>
			</g>
		</g>
	</g>
	<g id="Group-30" transform="translate(54.58862 53.51636)">
		<path id="Clip-29" fill="none" d="M114.064,57.976c0.994,1.463,1.952,2.942,2.875,4.437L-52.576,231.928
			c-1.494-0.923-2.973-1.881-4.436-2.875L114.064,57.976z"/>
		<g>
			<defs>
				<path id="SVGID_17_" d="M114.064,57.976c0.994,1.463,1.952,2.942,2.875,4.437L-52.576,231.928
					c-1.494-0.923-2.973-1.881-4.436-2.875L114.064,57.976z"/>
			</defs>
			<clipPath id="SVGID_18_">
				<use xlink:href="#SVGID_17_"  overflow="visible"/>
			</clipPath>
			<g clip-path="url(#SVGID_18_)">
				
					<linearGradient id="Fill-28_1_" gradientUnits="userSpaceOnUse" x1="75.8238" y1="619.423" x2="76.4339" y2="620.033" gradientTransform="matrix(190.1934 -190.1933 -190.1933 -190.1934 103408.2969 132387.5)">
					<stop  offset="0" style="stop-color:#0D57AA"/>
					<stop  offset="1" style="stop-color:#442683"/>
				</linearGradient>
				<path id="Fill-28" fill="url(#Fill-28_1_)" d="M-100.477,279.829l-3.656-3.655l265.32-265.32l3.654,3.657L-100.477,279.829z"/>
			</g>
		</g>
	</g>
	<g id="Group-33" transform="translate(70.302 69.66772)">
		<path id="Clip-32" fill="none" d="M107.27,57.276c0.802,1.659,1.566,3.334,2.29,5.021L-52.255,224.112
			c-1.687-0.724-3.362-1.489-5.021-2.29L107.27,57.276L107.27,57.276z"/>
		<g>
			<defs>
				<path id="SVGID_19_" d="M107.27,57.276c0.802,1.659,1.566,3.334,2.29,5.021L-52.255,224.112
					c-1.687-0.724-3.362-1.489-5.021-2.29L107.27,57.276L107.27,57.276z"/>
			</defs>
			<clipPath id="SVGID_20_">
				<use xlink:href="#SVGID_19_"  overflow="visible"/>
			</clipPath>
			<g clip-path="url(#SVGID_20_)">
				
					<linearGradient id="Fill-31_1_" gradientUnits="userSpaceOnUse" x1="60.1105" y1="603.2716" x2="60.7205" y2="603.8817" gradientTransform="matrix(190.1927 -190.1926 -190.1926 -190.1927 103321.125 126322.5547)">
					<stop  offset="0" style="stop-color:#0D57AA"/>
					<stop  offset="1" style="stop-color:#442683"/>
				</linearGradient>
				<path id="Fill-31" fill="url(#Fill-31_1_)" d="M-104.008,275.862l-3.654-3.654L157.655,6.891l3.655,3.655L-104.008,275.862z"/>
			</g>
		</g>
	</g>
	<g id="Group-36" transform="translate(87.76782 86.69702)">
		<path id="Clip-35" fill="none" d="M96.666,57.752c0.579,1.893,1.112,3.799,1.598,5.713L-51.523,213.253
			c-1.914-0.486-3.819-1.019-5.713-1.597L96.666,57.752L96.666,57.752z"/>
		<g>
			<defs>
				<path id="SVGID_21_" d="M96.666,57.752c0.579,1.893,1.112,3.799,1.598,5.713L-51.523,213.253
					c-1.914-0.486-3.819-1.019-5.713-1.597L96.666,57.752L96.666,57.752z"/>
			</defs>
			<clipPath id="SVGID_22_">
				<use xlink:href="#SVGID_21_"  overflow="visible"/>
			</clipPath>
			<g clip-path="url(#SVGID_22_)">
				
					<linearGradient id="Fill-34_1_" gradientUnits="userSpaceOnUse" x1="42.6446" y1="586.2423" x2="43.2547" y2="586.8524" gradientTransform="matrix(190.1927 -190.1933 -190.1926 -190.1934 103398.7969 119757.5078)">
					<stop  offset="0" style="stop-color:#0D57AA"/>
					<stop  offset="1" style="stop-color:#442683"/>
				</linearGradient>
				<path id="Fill-34" fill="url(#Fill-34_1_)" d="M-109.288,271.018l-3.656-3.655L152.375,2.044l3.655,3.655L-109.288,271.018z"/>
			</g>
		</g>
	</g>
	<g id="Group-39" transform="translate(107.0354 107.0325)">
		<path id="Clip-38" fill="none" d="M81.743,57.443c0.289,2.202,0.517,4.41,0.688,6.623L-49.852,196.349
			c-2.213-0.171-4.421-0.399-6.623-0.688L81.743,57.443z"/>
		<g>
			<defs>
				<path id="SVGID_23_" d="M81.743,57.443c0.289,2.202,0.517,4.41,0.688,6.623L-49.852,196.349
					c-2.213-0.171-4.421-0.399-6.623-0.688L81.743,57.443z"/>
			</defs>
			<clipPath id="SVGID_24_">
				<use xlink:href="#SVGID_23_"  overflow="visible"/>
			</clipPath>
			<g clip-path="url(#SVGID_24_)">
				
					<linearGradient id="Fill-37_1_" gradientUnits="userSpaceOnUse" x1="23.3771" y1="565.9068" x2="23.9871" y2="566.5168" gradientTransform="matrix(190.1927 -190.1933 -190.1926 -190.1934 103188.6016 112217.1016)">
					<stop  offset="0" style="stop-color:#0D57AA"/>
					<stop  offset="1" style="stop-color:#442683"/>
				</linearGradient>
				<path id="Fill-37" fill="url(#Fill-37_1_)" d="M-116.37,262.867l-3.656-3.656L145.294-6.108l3.654,3.656L-116.37,262.867z"/>
			</g>
		</g>
	</g>
	<g id="Group-42" transform="translate(131.3752 130.7408)">
		<path id="Clip-41" fill="none" d="M58.23,57.275c-0.162,2.693-0.412,5.382-0.75,8.061L-49.214,172.031
			c-2.68,0.339-5.369,0.589-8.062,0.75L58.23,57.275L58.23,57.275z"/>
		<g>
			<defs>
				<path id="SVGID_25_" d="M58.23,57.275c-0.162,2.693-0.412,5.382-0.75,8.061L-49.214,172.031c-2.68,0.339-5.369,0.589-8.062,0.75
					L58.23,57.275L58.23,57.275z"/>
			</defs>
			<clipPath id="SVGID_26_">
				<use xlink:href="#SVGID_25_"  overflow="visible"/>
			</clipPath>
			<g clip-path="url(#SVGID_26_)">
				
					<linearGradient id="Fill-40_1_" gradientUnits="userSpaceOnUse" x1="-0.9627" y1="542.1985" x2="-0.3527" y2="542.8085" gradientTransform="matrix(190.1934 -190.1933 -190.1933 -190.1934 103296.9688 103067.1328)">
					<stop  offset="0" style="stop-color:#0D57AA"/>
					<stop  offset="1" style="stop-color:#442683"/>
				</linearGradient>
				<path id="Fill-40" fill="url(#Fill-40_1_)" d="M-128.526,251.343l-3.655-3.656L133.136-17.631l3.656,3.656L-128.526,251.343z"/>
			</g>
		</g>
	</g>
	<g id="Group-45" transform="translate(161.2986 160.6619)">
		<path id="Clip-44" fill="none" d="M22.757,57.276c-1.253,3.951-2.712,7.851-4.375,11.685l-63.973,63.973
			c-3.833,1.662-7.733,3.121-11.685,4.374L22.757,57.276L22.757,57.276z"/>
		<g>
			<defs>
				<path id="SVGID_27_" d="M22.757,57.276c-1.253,3.951-2.712,7.851-4.375,11.685l-63.973,63.973
					c-3.833,1.662-7.733,3.121-11.685,4.374L22.757,57.276L22.757,57.276z"/>
			</defs>
			<clipPath id="SVGID_28_">
				<use xlink:href="#SVGID_27_"  overflow="visible"/>
			</clipPath>
			<g clip-path="url(#SVGID_28_)">
				
					<linearGradient id="Fill-43_1_" gradientUnits="userSpaceOnUse" x1="-30.8861" y1="512.2774" x2="-30.2761" y2="512.8875" gradientTransform="matrix(190.1934 -190.1933 -190.1933 -190.1934 103279.6797 91667.3828)">
					<stop  offset="0" style="stop-color:#0D57AA"/>
					<stop  offset="1" style="stop-color:#442683"/>
				</linearGradient>
				<path id="Fill-43" fill="url(#Fill-43_1_)" d="M-146.264,233.606l-3.655-3.656L115.4-35.368l3.655,3.655L-146.264,233.606z"/>
			</g>
		</g>
	</g>
</g>
</svg>
